<svg width="25" height="24" viewBox="0 0 25 24" fill="none" xmlns="http://www.w3.org/2000/svg">
<path d="M10.8741 5.076C13.2035 4.7984 15.5598 5.29082 17.583 6.47805C19.6063 7.66528 21.1854 9.48207 22.0791 11.651C22.1625 11.8755 22.1625 12.1225 22.0791 12.347C21.7116 13.238 21.226 14.0755 20.6351 14.837" stroke="black" stroke-width="2" stroke-linecap="round" stroke-linejoin="round"/>
<path d="M14.2252 14.158C13.6594 14.7045 12.9016 15.0069 12.115 15C11.3284 14.9932 10.576 14.6777 10.0197 14.1215C9.46351 13.5652 9.148 12.8128 9.14117 12.0262C9.13433 11.2396 9.43671 10.4818 9.98319 9.916" stroke="black" stroke-width="2" stroke-linecap="round" stroke-linejoin="round"/>
<path d="M17.6202 17.499C16.2937 18.2848 14.8137 18.776 13.2806 18.9394C11.7475 19.1028 10.1971 18.9345 8.73482 18.4459C7.2725 17.9573 5.93238 17.1599 4.8054 16.1077C3.67842 15.0556 2.79094 13.7734 2.20319 12.348C2.11985 12.1235 2.11985 11.8765 2.20319 11.652C3.08982 9.50185 4.64986 7.69725 6.64919 6.509" stroke="black" stroke-width="2" stroke-linecap="round" stroke-linejoin="round"/>
<path d="M2.14117 2L22.1412 22" stroke="black" stroke-width="2" stroke-linecap="round" stroke-linejoin="round"/>
</svg>
