<svg width="18" height="18" viewBox="0 0 18 18" fill="none" xmlns="http://www.w3.org/2000/svg">
<path d="M0 15.3V13.5H2.25V7.2C2.25 5.955 2.71875 4.84875 3.65625 3.88125C4.59375 2.91375 5.8125 2.28 7.3125 1.98V1.35C7.3125 0.975 7.47656 0.65625 7.80469 0.39375C8.13281 0.13125 8.53125 0 9 0C9.46875 0 9.86719 0.13125 10.1953 0.39375C10.5234 0.65625 10.6875 0.975 10.6875 1.35V1.98C12.1875 2.28 13.4062 2.91375 14.3438 3.88125C15.2812 4.84875 15.75 5.955 15.75 7.2V13.5H18V15.3H0ZM9 18C8.38125 18 7.85156 17.8238 7.41094 17.4713C6.97031 17.1188 6.75 16.695 6.75 16.2H11.25C11.25 16.695 11.0297 17.1188 10.5891 17.4713C10.1484 17.8238 9.61875 18 9 18ZM4.5 13.5H13.5V7.2C13.5 6.21 13.0594 5.3625 12.1781 4.6575C11.2969 3.9525 10.2375 3.6 9 3.6C7.7625 3.6 6.70312 3.9525 5.82187 4.6575C4.94062 5.3625 4.5 6.21 4.5 7.2V13.5Z" fill="black"/>
</svg>
