<svg width="25" height="24" viewBox="0 0 25 24" fill="none" xmlns="http://www.w3.org/2000/svg">
<path d="M12.1417 15C13.7985 15 15.1417 13.6569 15.1417 12C15.1417 10.3431 13.7985 9 12.1417 9C10.4848 9 9.14166 10.3431 9.14166 12C9.14166 13.6569 10.4848 15 12.1417 15Z" stroke="black" stroke-width="2" stroke-linecap="round" stroke-linejoin="round"/>
<path d="M9.43074 19.3711L10.0152 20.6856C10.189 21.0768 10.4725 21.4093 10.8314 21.6426C11.1904 21.8759 11.6093 22.0001 12.0374 22C12.4656 22.0001 12.8845 21.8759 13.2434 21.6426C13.6024 21.4093 13.8859 21.0768 14.0597 20.6856L14.6441 19.3711C14.8522 18.9047 15.2021 18.5159 15.6441 18.26C16.0889 18.0034 16.6034 17.8941 17.1141 17.9478L18.5441 18.1C18.9698 18.145 19.3994 18.0656 19.7808 17.8713C20.1622 17.6771 20.4791 17.3763 20.693 17.0056C20.9072 16.635 21.0092 16.2103 20.9867 15.7829C20.9642 15.3555 20.8182 14.9438 20.5663 14.5978L19.7197 13.4344C19.4182 13.0171 19.2571 12.5148 19.2597 12C19.2596 11.4866 19.4222 10.9864 19.7241 10.5711L20.5708 9.40778C20.8226 9.06175 20.9687 8.65007 20.9912 8.22267C21.0137 7.79528 20.9116 7.37054 20.6974 7C20.4835 6.62923 20.1667 6.32849 19.7852 6.13423C19.4038 5.93997 18.9742 5.86053 18.5486 5.90556L17.1186 6.05778C16.6079 6.11141 16.0933 6.00212 15.6486 5.74556C15.2057 5.48825 14.8556 5.09736 14.6486 4.62889L14.0597 3.31444C13.8859 2.92317 13.6024 2.59072 13.2434 2.3574C12.8845 2.12408 12.4656 1.99993 12.0374 2C11.6093 1.99993 11.1904 2.12408 10.8314 2.3574C10.4725 2.59072 10.189 2.92317 10.0152 3.31444L9.43074 4.62889C9.22367 5.09736 8.87362 5.48825 8.43074 5.74556C7.98596 6.00212 7.47141 6.11141 6.96074 6.05778L5.5263 5.90556C5.10063 5.86053 4.67104 5.93997 4.28961 6.13423C3.90819 6.32849 3.59131 6.62923 3.37741 7C3.16323 7.37054 3.06119 7.79528 3.08368 8.22267C3.10616 8.65007 3.2522 9.06175 3.50408 9.40778L4.35074 10.5711C4.65268 10.9864 4.81528 11.4866 4.81519 12C4.81528 12.5134 4.65268 13.0137 4.35074 13.4289L3.50408 14.5922C3.2522 14.9382 3.10616 15.3499 3.08368 15.7773C3.06119 16.2047 3.16323 16.6295 3.37741 17C3.59153 17.3706 3.90844 17.6712 4.28981 17.8654C4.67118 18.0596 5.10066 18.1392 5.5263 18.0944L6.9563 17.9422C7.46697 17.8886 7.98151 17.9979 8.4263 18.2544C8.87083 18.511 9.22251 18.902 9.43074 19.3711Z" stroke="black" stroke-width="2" stroke-linecap="round" stroke-linejoin="round"/>
</svg>
