<svg width="25" height="24" viewBox="0 0 25 24" fill="none" xmlns="http://www.w3.org/2000/svg">
<path d="M16.1412 6V5.2C16.1412 4.0799 16.1412 3.51984 15.9232 3.09202C15.7315 2.71569 15.4255 2.40973 15.0492 2.21799C14.6214 2 14.0613 2 12.9412 2H11.3412C10.2211 2 9.66101 2 9.23319 2.21799C8.85686 2.40973 8.5509 2.71569 8.35916 3.09202C8.14117 3.51984 8.14117 4.0799 8.14117 5.2V6M3.14117 6H21.1412M19.1412 6V17.2C19.1412 18.8802 19.1412 19.7202 18.8142 20.362C18.5266 20.9265 18.0677 21.3854 17.5032 21.673C16.8614 22 16.0214 22 14.3412 22H9.94117C8.26101 22 7.42093 22 6.7792 21.673C6.21471 21.3854 5.75577 20.9265 5.46815 20.362C5.14117 19.7202 5.14117 18.8802 5.14117 17.2V6" stroke="black" stroke-width="2" stroke-linecap="round" stroke-linejoin="round"/>
</svg>
