<svg width="23" height="20" viewBox="0 0 23 20" fill="none" xmlns="http://www.w3.org/2000/svg">
<path d="M0.141174 19.5L11.1412 0.5L22.1412 19.5H0.141174ZM3.59117 17.5H18.6912L11.1412 4.5L3.59117 17.5ZM11.1412 16.5C11.4245 16.5 11.662 16.4042 11.8537 16.2125C12.0453 16.0208 12.1412 15.7833 12.1412 15.5C12.1412 15.2167 12.0453 14.9792 11.8537 14.7875C11.662 14.5958 11.4245 14.5 11.1412 14.5C10.8578 14.5 10.6203 14.5958 10.4287 14.7875C10.237 14.9792 10.1412 15.2167 10.1412 15.5C10.1412 15.7833 10.237 16.0208 10.4287 16.2125C10.6203 16.4042 10.8578 16.5 11.1412 16.5ZM10.1412 13.5H12.1412V8.5H10.1412V13.5Z" fill="black"/>
</svg>
