<svg width="25" height="24" viewBox="0 0 25 24" fill="none" xmlns="http://www.w3.org/2000/svg">
<path d="M11.1412 3.99998H6.94117C5.26101 3.99998 4.42093 3.99998 3.7792 4.32696C3.21471 4.61458 2.75577 5.07353 2.46815 5.63801C2.14117 6.27975 2.14117 7.11983 2.14117 8.79998V17.2C2.14117 18.8801 2.14117 19.7202 2.46815 20.362C2.75577 20.9264 3.21471 21.3854 3.7792 21.673C4.42093 22 5.26101 22 6.94117 22H15.3412C17.0214 22 17.8614 22 18.5032 21.673C19.0677 21.3854 19.5266 20.9264 19.8142 20.362C20.1412 19.7202 20.1412 18.8801 20.1412 17.2V13M8.14114 16H9.81569C10.3049 16 10.5495 16 10.7797 15.9447C10.9837 15.8957 11.1788 15.8149 11.3578 15.7053C11.5596 15.5816 11.7326 15.4086 12.0785 15.0627L21.6412 5.49998C22.4696 4.67156 22.4696 3.32841 21.6412 2.49998C20.8128 1.67156 19.4696 1.67155 18.6412 2.49998L9.0784 12.0627C8.7325 12.4086 8.55955 12.5816 8.43586 12.7834C8.32621 12.9624 8.2454 13.1574 8.1964 13.3615C8.14114 13.5917 8.14114 13.8363 8.14114 14.3255V16Z" stroke="black" stroke-width="2" stroke-linecap="round" stroke-linejoin="round"/>
</svg>
