<svg width="21" height="20" viewBox="0 0 21 20" fill="none" xmlns="http://www.w3.org/2000/svg">
<path d="M10.1412 15C10.4245 15 10.662 14.9042 10.8537 14.7125C11.0453 14.5208 11.1412 14.2833 11.1412 14C11.1412 13.7167 11.0453 13.4792 10.8537 13.2875C10.662 13.0958 10.4245 13 10.1412 13C9.85784 13 9.62034 13.0958 9.42867 13.2875C9.23701 13.4792 9.14117 13.7167 9.14117 14C9.14117 14.2833 9.23701 14.5208 9.42867 14.7125C9.62034 14.9042 9.85784 15 10.1412 15ZM9.14117 11H11.1412V5H9.14117V11ZM10.1412 20C8.75784 20 7.45784 19.7375 6.24117 19.2125C5.02451 18.6875 3.96617 17.975 3.06617 17.075C2.16617 16.175 1.45367 15.1167 0.928674 13.9C0.403674 12.6833 0.141174 11.3833 0.141174 10C0.141174 8.61667 0.403674 7.31667 0.928674 6.1C1.45367 4.88333 2.16617 3.825 3.06617 2.925C3.96617 2.025 5.02451 1.3125 6.24117 0.7875C7.45784 0.2625 8.75784 0 10.1412 0C11.5245 0 12.8245 0.2625 14.0412 0.7875C15.2578 1.3125 16.3162 2.025 17.2162 2.925C18.1162 3.825 18.8287 4.88333 19.3537 6.1C19.8787 7.31667 20.1412 8.61667 20.1412 10C20.1412 11.3833 19.8787 12.6833 19.3537 13.9C18.8287 15.1167 18.1162 16.175 17.2162 17.075C16.3162 17.975 15.2578 18.6875 14.0412 19.2125C12.8245 19.7375 11.5245 20 10.1412 20ZM10.1412 18C12.3745 18 14.2662 17.225 15.8162 15.675C17.3662 14.125 18.1412 12.2333 18.1412 10C18.1412 7.76667 17.3662 5.875 15.8162 4.325C14.2662 2.775 12.3745 2 10.1412 2C7.90784 2 6.01617 2.775 4.46617 4.325C2.91617 5.875 2.14117 7.76667 2.14117 10C2.14117 12.2333 2.91617 14.125 4.46617 15.675C6.01617 17.225 7.90784 18 10.1412 18Z" fill="black"/>
</svg>
