<svg width="25" height="24" viewBox="0 0 25 24" fill="none" xmlns="http://www.w3.org/2000/svg">
<path d="M2.20319 12.348C2.11985 12.1235 2.11985 11.8765 2.20319 11.652C3.01489 9.68386 4.39271 8.00104 6.16196 6.8169C7.93122 5.63276 10.0122 5.00062 12.1412 5.00062C14.2701 5.00062 16.3512 5.63276 18.1204 6.8169C19.8897 8.00104 21.2675 9.68386 22.0792 11.652C22.1625 11.8765 22.1625 12.1235 22.0792 12.348C21.2675 14.3161 19.8897 15.999 18.1204 17.1831C16.3512 18.3672 14.2701 18.9994 12.1412 18.9994C10.0122 18.9994 7.93122 18.3672 6.16196 17.1831C4.39271 15.999 3.01489 14.3161 2.20319 12.348Z" stroke="black" stroke-width="2" stroke-linecap="round" stroke-linejoin="round"/>
<path d="M12.1412 15C13.798 15 15.1412 13.6569 15.1412 12C15.1412 10.3431 13.798 9 12.1412 9C10.4843 9 9.14117 10.3431 9.14117 12C9.14117 13.6569 10.4843 15 12.1412 15Z" stroke="black" stroke-width="2" stroke-linecap="round" stroke-linejoin="round"/>
</svg>
