<svg width="25" height="24" viewBox="0 0 25 24" fill="none" xmlns="http://www.w3.org/2000/svg">
<path d="M8.14117 17H16.1412M11.1589 2.764L4.37656 8.03912C3.92319 8.39175 3.69651 8.56806 3.5332 8.78886C3.38854 8.98444 3.28077 9.20478 3.2152 9.43905C3.14117 9.70352 3.14117 9.9907 3.14117 10.5651V17.8C3.14117 18.9201 3.14117 19.4801 3.35916 19.908C3.5509 20.2843 3.85686 20.5903 4.23319 20.782C4.66101 21 5.22106 21 6.34117 21H17.9412C19.0613 21 19.6214 21 20.0492 20.782C20.4255 20.5903 20.7315 20.2843 20.9232 19.908C21.1412 19.4801 21.1412 18.9201 21.1412 17.8V10.5651C21.1412 9.9907 21.1412 9.70352 21.0672 9.43905C21.0016 9.20478 20.8938 8.98444 20.7492 8.78886C20.5859 8.56806 20.3592 8.39175 19.9058 8.03913L13.1235 2.764C12.7722 2.49075 12.5965 2.35412 12.4025 2.3016C12.2314 2.25526 12.051 2.25526 11.8799 2.3016C11.6859 2.35412 11.5102 2.49075 11.1589 2.764Z" stroke="black" stroke-width="2" stroke-linecap="round" stroke-linejoin="round"/>
</svg>
