<svg width="25" height="24" viewBox="0 0 25 24" fill="none" xmlns="http://www.w3.org/2000/svg">
<path d="M2.14117 12H22.1412M2.14117 7H7.14117M17.1412 7H22.1412M2.14117 17H7.14117M17.1412 17H22.1412M7.14117 22V2M17.1412 22V2M6.94117 22H17.3412C19.0214 22 19.8614 22 20.5032 21.673C21.0677 21.3854 21.5266 20.9265 21.8142 20.362C22.1412 19.7202 22.1412 18.8802 22.1412 17.2V6.8C22.1412 5.11984 22.1412 4.27976 21.8142 3.63803C21.5266 3.07354 21.0677 2.6146 20.5032 2.32698C19.8614 2 19.0214 2 17.3412 2H6.94117C5.26101 2 4.42093 2 3.7792 2.32698C3.21471 2.6146 2.75577 3.07354 2.46815 3.63803C2.14117 4.27976 2.14117 5.11984 2.14117 6.8V17.2C2.14117 18.8802 2.14117 19.7202 2.46815 20.362C2.75577 20.9265 3.21471 21.3854 3.7792 21.673C4.42093 22 5.26101 22 6.94117 22Z" stroke="black" stroke-width="2" stroke-linecap="round" stroke-linejoin="round"/>
</svg>
