<svg width="25" height="24" viewBox="0 0 25 24" fill="none" xmlns="http://www.w3.org/2000/svg">
<path d="M5.14117 4.98951C5.14117 4.01835 5.14117 3.53277 5.34366 3.2651C5.52006 3.03191 5.78969 2.88761 6.08157 2.87018C6.41661 2.85017 6.82063 3.11953 7.62869 3.65823L18.1443 10.6686C18.812 11.1137 19.1458 11.3363 19.2621 11.6168C19.3639 11.8621 19.3639 12.1377 19.2621 12.383C19.1458 12.6635 18.812 12.886 18.1443 13.3312L7.62869 20.3415C6.82063 20.8802 6.41661 21.1496 6.08157 21.1296C5.78969 21.1122 5.52006 20.9679 5.34366 20.7347C5.14117 20.467 5.14117 19.9814 5.14117 19.0103V4.98951Z" stroke="black" stroke-width="2" stroke-linecap="round" stroke-linejoin="round"/>
</svg>
