<svg width="25" height="24" viewBox="0 0 25 24" fill="none" xmlns="http://www.w3.org/2000/svg">
<path d="M12.1412 22C10.8912 22 9.72034 21.7625 8.62867 21.2875C7.53701 20.8125 6.58701 20.1708 5.77867 19.3625C4.97034 18.5542 4.32867 17.6042 3.85367 16.5125C3.37867 15.4208 3.14117 14.25 3.14117 13H5.14117C5.14117 14.95 5.82034 16.6042 7.17867 17.9625C8.53701 19.3208 10.1912 20 12.1412 20C14.0912 20 15.7453 19.3208 17.1037 17.9625C18.462 16.6042 19.1412 14.95 19.1412 13C19.1412 11.05 18.462 9.39583 17.1037 8.0375C15.7453 6.67917 14.0912 6 12.1412 6H11.9912L13.5412 7.55L12.1412 9L8.14117 5L12.1412 1L13.5412 2.45L11.9912 4H12.1412C13.3912 4 14.562 4.2375 15.6537 4.7125C16.7453 5.1875 17.6953 5.82917 18.5037 6.6375C19.312 7.44583 19.9537 8.39583 20.4287 9.4875C20.9037 10.5792 21.1412 11.75 21.1412 13C21.1412 14.25 20.9037 15.4208 20.4287 16.5125C19.9537 17.6042 19.312 18.5542 18.5037 19.3625C17.6953 20.1708 16.7453 20.8125 15.6537 21.2875C14.562 21.7625 13.3912 22 12.1412 22Z" fill="black"/>
</svg>
